HIERARCHY
ROOT joint_Root
{
	OFFSET 0.0 0.0 0.0
	CHANNELS 6 Xposition Yposition Zposition Zrotation Xrotation Yrotation 
	JOINT Hips
	{
		OFFSET -0.726466 93.3139 -2.00062
		CHANNELS 6 Xposition Yposition Zposition Zrotation Xrotation Yrotation 
		JOINT Spine
		{
			OFFSET 15.7357 0.0 0.0
			CHANNELS 6 Xposition Yposition Zposition Zrotation Xrotation Yrotation 
			JOINT Chest
			{
				OFFSET 8.98455 -0.406207 0.0
				CHANNELS 6 Xposition Yposition Zposition Zrotation Xrotation Yrotation 
				JOINT Neck
				{
					OFFSET 16.3773 0.0 0.0
					CHANNELS 6 Xposition Yposition Zposition Zrotation Xrotation Yrotation 
					JOINT Head
					{
						OFFSET 6.45672 0.0 0.0
						CHANNELS 6 Xposition Yposition Zposition Zrotation Xrotation Yrotation 
						End Site
						{
							OFFSET 0.0 0.0 0.0
						}
					}
				}
				JOINT Shoulder_L
				{
					OFFSET 12.9942 -0.242716 4.98039
					CHANNELS 6 Xposition Yposition Zposition Zrotation Xrotation Yrotation 
					JOINT UpperArm_L
					{
						OFFSET 5.34809 0.0 0.0
						CHANNELS 6 Xposition Yposition Zposition Zrotation Xrotation Yrotation 
						JOINT LowerArm_L
						{
							OFFSET 24.3286 1.87007e-05 0.0
							CHANNELS 6 Xposition Yposition Zposition Zrotation Xrotation Yrotation 
							JOINT Hand_L
							{
								OFFSET 22.2916 0.0 0.0
								CHANNELS 6 Xposition Yposition Zposition Zrotation Xrotation Yrotation 
								End Site
								{
									OFFSET 0.0 0.0 0.0
								}
							}
						}
					}
				}
				JOINT Shoulder_R
				{
					OFFSET 12.9945 -0.242716 -4.98039
					CHANNELS 6 Xposition Yposition Zposition Zrotation Xrotation Yrotation 
					JOINT UpperArm_R
					{
						OFFSET -5.34813 0.0 0.0
						CHANNELS 6 Xposition Yposition Zposition Zrotation Xrotation Yrotation 
						JOINT LowerArm_R
						{
							OFFSET -24.3289 0.000322201 0.0
							CHANNELS 6 Xposition Yposition Zposition Zrotation Xrotation Yrotation 
							JOINT Hand_R
							{
								OFFSET -22.2915 -0.000108084 0.0
								CHANNELS 6 Xposition Yposition Zposition Zrotation Xrotation Yrotation 
								End Site
								{
									OFFSET 0.0 0.0 0.0
								}
							}
						}
					}
				}
			}
		}
		JOINT UpperLeg_L
		{
			OFFSET -2.19248 -6.46944 0.0
			CHANNELS 6 Xposition Yposition Zposition Zrotation Xrotation Yrotation 
			JOINT LowerLeg_L
			{
				OFFSET 39.0811 0.0 -1.23785e-05
				CHANNELS 6 Xposition Yposition Zposition Zrotation Xrotation Yrotation 
				JOINT Foot_L
				{
					OFFSET 40.9854 0.0 -1.26872e-05
					CHANNELS 6 Xposition Yposition Zposition Zrotation Xrotation Yrotation 
					JOINT Toes_L
					{
						OFFSET 11.7543 0.0 0.0
						CHANNELS 6 Xposition Yposition Zposition Zrotation Xrotation Yrotation 
						End Site
						{
							OFFSET 0.0 0.0 0.0
						}
					}
				}
			}
		}
		JOINT UpperLeg_R
		{
			OFFSET -2.19251 6.46944 0.0
			CHANNELS 6 Xposition Yposition Zposition Zrotation Xrotation Yrotation 
			JOINT LowerLeg_R
			{
				OFFSET -39.0811 -0.00228153 -0.0401928
				CHANNELS 6 Xposition Yposition Zposition Zrotation Xrotation Yrotation 
				JOINT Foot_R
				{
					OFFSET -40.9854 0.0 0.0
					CHANNELS 6 Xposition Yposition Zposition Zrotation Xrotation Yrotation 
					JOINT Toes_R
					{
						OFFSET -11.7543 0.0 0.0
						CHANNELS 6 Xposition Yposition Zposition Zrotation Xrotation Yrotation 
						End Site
						{
							OFFSET 0.0 0.0 0.0
						}
					}
				}
			}
		}
	}
}
MOTION
Frames:	9
Frame Time:	0.0333333
0.000000 0.000000 0.000000 0.000000 0.000000 -0.000000 -0.599143 92.289400 -0.383517 88.056100 -0.921624 4.599150 15.735700 0.000005 -0.000001 83.092000 84.973700 -82.219700 8.984550 -0.406207 -0.000000 2.224250 -1.250390 1.767220 16.377300 -0.000001 -0.000001 2.837040 -2.194040 -0.143520 6.456720 -0.000001 -0.000000 5.512320 -2.224480 -1.018960 12.994200 -0.242716 4.980390 -90.144900 0.468194 -72.800500 5.348090 -0.000007 -0.000001 -67.954200 40.864800 -14.541600 24.328600 0.000019 0.000005 3.517750 7.333580 -25.700100 22.291600 -0.000001 0.000005 1.593550 5.447150 -4.527990 12.994500 -0.242716 -4.980390 88.391100 5.148420 -72.619100 -5.348130 -0.000001 -0.000004 -65.284800 40.651100 -15.904400 -24.328900 0.000322 -0.000009 2.579440 8.835090 -16.353500 -22.291500 -0.000108 -0.000004 9.206730 5.410450 -3.280310 -2.192480 -6.469440 -0.000000 -175.186000 -8.438550 -1.870470 39.081100 -0.000007 -0.000012 -0.109073 0.258778 22.855200 40.985400 -0.000006 -0.000013 -0.039240 4.323080 -66.501800 11.754300 -0.000000 0.000003 -0.000042 -0.000491 -16.596600 -2.192510 6.469440 -0.000001 179.724000 13.965500 -179.206000 -39.081100 -0.002282 -0.040193 -0.044981 0.138030 19.287400 -40.985400 0.000008 0.000006 3.497360 8.195510 -65.985100 -11.754300 -0.000006 -0.000006 -0.008758 -0.094107 -20.406000
0.000000 0.000000 0.000000 0.000000 0.000000 -0.000000 -0.625058 92.288700 -0.445463 88.034600 -0.908349 4.617390 15.735700 0.000005 -0.000001 83.483100 84.951200 -82.546800 8.984550 -0.406207 -0.000000 2.277280 -1.190020 1.894450 16.377300 -0.000001 -0.000001 2.747970 -2.214340 -0.179036 6.456720 -0.000001 -0.000000 5.456510 -2.277500 -1.134960 12.994200 -0.242716 4.980390 -90.364900 1.163230 -72.583700 5.348090 -0.000007 -0.000001 -65.263000 39.015700 -15.349100 24.328600 0.000019 0.000005 6.463630 11.202700 -30.238400 22.291600 -0.000001 0.000005 -1.176470 5.428940 -3.901970 12.994500 -0.242716 -4.980390 88.446500 4.954930 -72.568400 -5.348130 -0.000001 -0.000004 -65.752800 40.136600 -15.712600 -24.328900 0.000322 -0.000009 2.588440 8.936780 -16.232000 -22.291500 -0.000108 -0.000004 9.251320 5.411470 -3.313830 -2.192480 -6.469440 -0.000000 -175.149000 -8.432380 -1.942120 39.081100 -0.000007 -0.000012 -0.109488 0.258938 22.920500 40.985400 -0.000006 -0.000013 -0.052778 4.327150 -66.475600 11.754300 -0.000000 0.000003 -0.000043 -0.000498 -16.596900 -2.192510 6.469440 -0.000001 179.756000 14.026700 -179.249000 -39.081100 -0.002282 -0.040193 -0.046299 0.141555 19.318000 -40.985400 0.000008 0.000006 3.494700 8.232150 -65.954000 -11.754300 -0.000006 -0.000006 -0.008947 -0.095593 -20.466700
0.000000 0.000000 0.000000 0.000000 0.000000 -0.000000 -0.687160 92.283900 -0.523264 88.045900 -0.807488 4.741270 15.735700 0.000005 -0.000001 84.706100 84.921100 -83.727700 8.984550 -0.406207 -0.000000 2.357840 -0.982626 1.975230 16.377300 -0.000001 -0.000001 2.743610 -2.309780 -0.213168 6.456720 -0.000001 -0.000000 5.394900 -2.559470 -1.190840 12.994200 -0.242716 4.980390 -90.566800 1.755630 -72.105400 5.348090 -0.000007 -0.000001 -61.198800 34.861600 -17.258700 24.328600 0.000019 0.000005 7.419940 10.432800 -35.729900 22.291600 -0.000001 0.000005 -0.994395 5.426830 -3.831190 12.994500 -0.242716 -4.980390 88.512400 4.748720 -72.583800 -5.348130 -0.000001 -0.000004 -66.485300 39.470700 -15.082600 -24.328900 0.000322 -0.000009 2.566860 8.757590 -16.413000 -22.291500 -0.000108 -0.000004 9.259430 5.408960 -3.230710 -2.192480 -6.469440 -0.000000 -175.105000 -8.375480 -1.921990 39.081100 -0.000007 -0.000012 -0.109369 0.257831 22.986200 40.985400 -0.000006 -0.000013 -0.083137 4.382560 -66.438200 11.754300 -0.000000 0.000003 -0.000038 -0.000450 -16.595100 -2.192510 6.469440 -0.000001 179.730000 14.184100 -179.186000 -39.081100 -0.002282 -0.040193 -0.049829 0.151208 19.367300 -40.985400 0.000008 0.000006 3.376810 8.298700 -65.920000 -11.754300 -0.000006 -0.000006 -0.008712 -0.093744 -20.391200
0.000000 0.000000 0.000000 0.000000 0.000000 -0.000000 -0.807133 92.285300 -0.628115 88.080100 -0.506308 4.763400 15.735700 0.000005 -0.000001 86.197100 84.931800 -85.193100 8.984550 -0.406207 -0.000000 2.355250 -0.719149 2.020840 16.377300 -0.000001 -0.000001 2.872990 -2.383880 -0.299350 6.456720 -0.000001 -0.000000 5.331900 -3.118160 -1.197260 12.994200 -0.242716 4.980390 -90.532900 1.613270 -71.718900 5.348090 -0.000007 -0.000001 -57.556800 28.014200 -20.070800 24.328600 0.000019 0.000005 7.118280 8.104980 -41.534900 22.291600 -0.000001 0.000005 1.642650 5.441670 -4.337000 12.994500 -0.242716 -4.980390 88.537500 4.690000 -72.658800 -5.348130 -0.000001 -0.000004 -66.864200 39.306500 -14.486900 -24.328900 0.000322 -0.000009 2.550410 8.580570 -16.629000 -22.291500 -0.000108 -0.000004 9.294720 5.410480 -3.280960 -2.192480 -6.469440 -0.000000 -175.069000 -8.163560 -2.023650 39.081100 -0.000007 -0.000012 -0.112157 0.264214 23.001000 40.985400 -0.000006 -0.000013 -0.144280 4.506000 -66.341700 11.754300 -0.000000 0.000003 -0.000045 -0.000514 -16.597500 -2.192510 6.469440 -0.000001 179.729000 14.538400 -179.222000 -39.081100 -0.002282 -0.040193 -0.055318 0.166641 19.386700 -40.985400 0.000008 0.000006 3.259620 8.337060 -65.864000 -11.754300 -0.000006 -0.000006 -0.008876 -0.095038 -20.444100
0.000000 0.000000 0.000000 0.000000 0.000000 -0.000000 -0.961007 92.296000 -0.723649 88.153600 0.078737 4.851850 15.735700 0.000005 -0.000001 87.072700 84.946800 -86.014700 8.984550 -0.406207 -0.000000 2.333460 -0.565864 2.125410 16.377300 -0.000001 -0.000001 3.082510 -2.504070 -0.546850 6.456720 -0.000001 -0.000000 5.384070 -3.615770 -1.238450 12.994200 -0.242716 4.980390 -90.401800 1.198950 -71.471300 5.348090 -0.000007 -0.000001 -54.322700 19.596300 -23.608800 24.328600 0.000019 0.000005 8.081870 7.213620 -48.511400 22.291600 -0.000001 0.000005 4.138720 5.464220 -5.146810 12.994500 -0.242716 -4.980390 88.546500 4.693810 -72.772800 -5.348130 -0.000001 -0.000004 -66.735800 39.714700 -14.185800 -24.328900 0.000322 -0.000009 2.561390 8.610480 -16.642300 -22.291500 -0.000108 -0.000004 9.070220 5.412510 -3.348330 -2.192480 -6.469440 -0.000000 -175.068000 -7.796290 -2.084060 39.081100 -0.000007 -0.000012 -0.110698 0.261499 22.944000 40.985400 -0.000006 -0.000013 -0.200527 4.718490 -66.166900 11.754300 -0.000000 0.000003 -0.000042 -0.000489 -16.596600 -2.192510 6.469440 -0.000001 179.708000 15.075700 -179.151000 -39.081100 -0.002282 -0.040193 -0.055308 0.166674 19.380100 -40.985400 0.000008 0.000006 3.360000 8.244700 -65.861100 -11.754300 -0.000006 -0.000006 -0.008851 -0.094843 -20.436100
0.000000 0.000000 0.000000 0.000000 0.000000 -0.000000 -1.133720 92.301300 -0.821674 88.214500 0.845628 4.975240 15.735700 0.000005 -0.000001 87.624700 84.954100 -86.517000 8.984550 -0.406207 -0.000000 2.322760 -0.470526 2.222750 16.377300 -0.000001 -0.000001 3.233280 -2.642740 -0.628751 6.456720 -0.000001 -0.000000 5.415520 -4.066510 -1.321040 12.994200 -0.242716 4.980390 -90.220200 0.646995 -71.201500 5.348090 -0.000007 -0.000001 -51.320300 10.729100 -28.125100 24.328600 0.000019 0.000005 8.199470 5.565700 -56.067600 22.291600 -0.000001 0.000005 7.108600 5.486570 -5.991200 12.994500 -0.242716 -4.980390 88.506900 4.818380 -72.760400 -5.348130 -0.000001 -0.000004 -66.295400 40.303200 -14.109000 -24.328900 0.000322 -0.000009 2.568660 8.741020 -16.453300 -22.291500 -0.000108 -0.000004 8.965350 5.410630 -3.285970 -2.192480 -6.469440 -0.000000 -175.026000 -7.352240 -2.145830 39.081100 -0.000007 -0.000012 -0.111828 0.264422 22.924300 40.985400 -0.000006 -0.000013 -0.248820 5.074420 -66.004100 11.754300 -0.000000 0.000003 -0.000048 -0.000543 -16.598600 -2.192510 6.469440 -0.000001 179.709000 15.623300 -179.028000 -39.081100 -0.002282 -0.040193 -0.054248 0.163681 19.378100 -40.985400 0.000008 0.000006 3.465550 8.019270 -65.883300 -11.754300 -0.000006 -0.000006 -0.008972 -0.095790 -20.474800
0.000000 0.000000 0.000000 0.000000 0.000000 -0.000000 -1.306080 92.301300 -0.904962 88.303800 1.611110 4.978870 15.735700 0.000005 -0.000001 87.596900 85.001600 -86.441500 8.984550 -0.406207 -0.000000 2.227940 -0.474671 2.317780 16.377300 -0.000001 -0.000001 3.253470 -2.736000 -0.632104 6.456720 -0.000001 -0.000000 5.504060 -4.218840 -1.373090 12.994200 -0.242716 4.980390 -89.910300 -0.263464 -71.198900 5.348090 -0.000007 -0.000001 -50.003200 1.148530 -32.604900 24.328600 0.000019 0.000005 7.201210 3.496580 -64.241200 22.291600 -0.000001 0.000005 10.719400 5.505450 -6.738910 12.994500 -0.242716 -4.980390 88.446700 4.980030 -72.652900 -5.348130 -0.000001 -0.000004 -65.928100 40.372800 -14.137300 -24.328900 0.000322 -0.000009 2.598850 9.106520 -16.008400 -22.291500 -0.000108 -0.000004 9.032660 5.411460 -3.313630 -2.192480 -6.469440 -0.000000 -175.029000 -6.967840 -2.321350 39.081100 -0.000007 -0.000012 -0.111293 0.263316 22.911900 40.985400 -0.000006 -0.000013 -0.285166 5.464780 -65.853800 11.754300 -0.000000 0.000003 -0.000043 -0.000500 -16.597000 -2.192510 6.469440 -0.000001 179.692000 16.291000 -179.061000 -39.081100 -0.002282 -0.040193 -0.055607 0.166946 19.442400 -40.985400 0.000008 0.000006 3.540680 7.857610 -65.929500 -11.754300 -0.000006 -0.000006 -0.008828 -0.094661 -20.428700
0.000000 0.000000 0.000000 0.000000 0.000000 -0.000000 -1.430320 92.316600 -0.934732 88.427600 2.274740 4.943410 15.735700 0.000005 -0.000001 87.457200 85.062200 -86.275000 8.984550 -0.406207 -0.000000 2.106110 -0.496192 2.371240 16.377300 -0.000001 -0.000001 3.256710 -2.744310 -0.660562 6.456720 -0.000001 -0.000000 5.444950 -4.264810 -1.230230 12.994200 -0.242716 4.980390 -89.546300 -1.334300 -71.217300 5.348090 -0.000007 -0.000001 -50.419900 -8.596130 -37.762900 24.328600 0.000019 0.000005 6.072600 1.992570 -71.915900 22.291600 -0.000001 0.000005 14.802300 5.530760 -7.799470 12.994500 -0.242716 -4.980390 88.383300 5.134800 -72.496700 -5.348130 -0.000001 -0.000004 -65.771600 39.889000 -14.111200 -24.328900 0.000322 -0.000009 2.598300 9.370450 -15.580200 -22.291500 -0.000108 -0.000004 9.236030 5.408260 -3.207740 -2.192480 -6.469440 -0.000000 -175.073000 -6.729170 -2.390320 39.081100 -0.000007 -0.000012 -0.111853 0.267012 22.729300 40.985400 -0.000006 -0.000013 -0.299597 5.889980 -65.669300 11.754300 -0.000000 0.000003 -0.000045 -0.000517 -16.597700 -2.192510 6.469440 -0.000001 179.653000 16.795700 -179.052000 -39.081100 -0.002282 -0.040193 -0.051009 0.154209 19.408500 -40.985400 0.000008 0.000006 3.718570 7.647400 -65.976600 -11.754300 -0.000006 -0.000006 -0.008969 -0.095766 -20.473800
0.000000 0.000000 0.000000 0.000000 0.000000 -0.000000 -1.535820 92.326300 -0.955771 88.553000 2.952090 4.846600 15.735700 0.000005 -0.000001 86.776900 85.165800 -85.583700 8.984550 -0.406207 -0.000000 1.894550 -0.604366 2.394200 16.377300 -0.000001 -0.000001 3.335110 -2.751390 -0.666191 6.456720 -0.000001 -0.000000 5.406650 -4.163990 -1.053230 12.994200 -0.242716 4.980390 -89.197100 -2.368050 -71.263700 5.348090 -0.000007 -0.000001 -52.150100 -17.697700 -44.124600 24.328600 0.000019 0.000005 4.144330 0.902422 -77.749100 22.291600 -0.000001 0.000005 19.045900 5.561230 -9.222180 12.994500 -0.242716 -4.980390 88.339400 5.242280 -72.395500 -5.348130 -0.000001 -0.000004 -65.865000 39.096200 -13.917000 -24.328900 0.000322 -0.000009 2.583150 9.543500 -15.228100 -22.291500 -0.000108 -0.000004 9.589820 5.405590 -3.119990 -2.192480 -6.469440 -0.000000 -175.151000 -6.456120 -2.534190 39.081100 -0.000007 -0.000012 -0.110898 0.266595 22.586400 40.985400 -0.000006 -0.000013 -0.298521 6.289200 -65.513900 11.754300 -0.000000 0.000003 -0.000047 -0.000532 -16.598200 -2.192510 6.469440 -0.000001 179.592000 17.212100 -179.102000 -39.081100 -0.002282 -0.040193 -0.053682 0.162055 19.379900 -40.985400 0.000008 0.000006 3.683740 7.405700 -65.993900 -11.754300 -0.000006 -0.000006 -0.009029 -0.096231 -20.492800
